<svg width="1.5em" height="1.5em" viewBox="0 0 24 24" fill="none" xmlns="http://www.w3.org/2000/svg">
<path fill-rule="evenodd" clip-rule="evenodd" d="M2.99311 9.10527C2.36096 9.6742 2 10.4847 2 11.3352V18.9991C2 20.6559 3.34315 21.9991 5 21.9991H19C20.6569 21.9991 22 20.6559 22 18.9991V11.3352C22 10.4847 21.639 9.6742 21.0069 9.10527L14.0069 2.80527C12.866 1.77845 11.134 1.77845 9.9931 2.80527L2.99311 9.10527ZM11 12.9991C9.89543 12.9991 9 13.8945 9 14.9991V18.9991C9 19.5514 9.44772 19.9991 10 19.9991H14C14.5523 19.9991 15 19.5514 15 18.9991V14.9991C15 13.8945 14.1046 12.9991 13 12.9991H11Z" fill="currentColor"/>
</svg>
