<svg width="1.5em" height="1.5em" viewBox="0 0 24 24" fill="none" xmlns="http://www.w3.org/2000/svg">
<path d="M13 15.7324C13.5978 15.3866 14 14.7403 14 14C14 12.8954 13.1046 12 12 12C10.8954 12 10 12.8954 10 14C10 14.7403 10.4022 15.3866 11 15.7324V17C11 17.5523 11.4477 18 12 18C12.5523 18 13 17.5523 13 17V15.7324Z" fill="currentColor"/>
<path fill-rule="evenodd" clip-rule="evenodd" d="M14.3644 5C14.0313 3.70586 13.2609 3.5 11.8644 3.5C10.2075 3.5 8.86436 4.84315 8.86436 6.5V7.5H16.8644C18.5212 7.5 19.8644 8.84315 19.8644 10.5V18.5C19.8644 20.1569 18.5212 21.5 16.8644 21.5H6.86438C5.20753 21.5 3.86438 20.1569 3.86438 18.5V10.5C3.86438 8.84315 5.20752 7.50001 6.86436 7.5V6.5C6.86436 3.73858 9.10294 1.5 11.8644 1.5C14.1955 1.5 15.945 2.34368 16.5 4.5C16.6377 5.03485 16.5349 5.36234 16 5.5C15.4651 5.63766 14.502 5.53485 14.3644 5ZM6.86438 9.5C6.3121 9.5 5.86438 9.94772 5.86438 10.5V18.5C5.86438 19.0523 6.3121 19.5 6.86438 19.5H16.8644C17.4167 19.5 17.8644 19.0523 17.8644 18.5V10.5C17.8644 9.94772 17.4167 9.5 16.8644 9.5H6.86438Z" fill="currentColor"/>
</svg>
